<mxfile host="app.diagrams.net" agent="Mozilla/5.0 (Windows NT 10.0; Win64; x64) AppleWebKit/537.36 (KHTML, like Gecko) Chrome/140.0.0.0 Safari/537.36 Edg/140.0.0.0" version="28.2.1">
  <diagram name="Página-1" id="1SX6mEdfh1E-_AnjdFq0">
    <mxGraphModel dx="3428" dy="2165" grid="1" gridSize="10" guides="1" tooltips="1" connect="1" arrows="1" fold="1" page="1" pageScale="1" pageWidth="827" pageHeight="1169" math="0" shadow="0">
      <root>
        <mxCell id="0" />
        <mxCell id="1" parent="0" />
        <mxCell id="grUZeRGfLb8_Iu2T6s7t-157" value="" style="group" vertex="1" connectable="0" parent="1">
          <mxGeometry x="250" y="1140" width="506" height="764.5" as="geometry" />
        </mxCell>
        <mxCell id="grUZeRGfLb8_Iu2T6s7t-138" value="" style="shape=folder;fontStyle=1;spacingTop=10;tabWidth=110;tabHeight=30;tabPosition=left;html=1;whiteSpace=wrap;perimeter=none;" vertex="1" parent="grUZeRGfLb8_Iu2T6s7t-157">
          <mxGeometry width="500" height="479.99999999999994" as="geometry" />
        </mxCell>
        <mxCell id="grUZeRGfLb8_Iu2T6s7t-139" value="Domain" style="text;html=1;align=center;verticalAlign=middle;resizable=0;points=[];autosize=1;strokeColor=none;fillColor=none;imageWidth=24;perimeter=none;" vertex="1" parent="grUZeRGfLb8_Iu2T6s7t-157">
          <mxGeometry x="15" y="3.512195121951219" width="59" height="26" as="geometry" />
        </mxCell>
        <mxCell id="grUZeRGfLb8_Iu2T6s7t-140" value="" style="group" vertex="1" connectable="0" parent="grUZeRGfLb8_Iu2T6s7t-157">
          <mxGeometry x="83.98" y="46.83" width="196.02" height="372.29" as="geometry" />
        </mxCell>
        <mxCell id="grUZeRGfLb8_Iu2T6s7t-141" value="" style="shape=folder;fontStyle=1;spacingTop=10;tabWidth=86;tabHeight=30;tabPosition=left;html=1;whiteSpace=wrap;fillColor=none;" vertex="1" parent="grUZeRGfLb8_Iu2T6s7t-140">
          <mxGeometry width="185.6424705882353" height="372.29" as="geometry" />
        </mxCell>
        <mxCell id="grUZeRGfLb8_Iu2T6s7t-142" value="Modelo" style="text;html=1;align=center;verticalAlign=middle;resizable=0;points=[];autosize=1;strokeColor=none;fillColor=none;imageWidth=24;perimeter=none;" vertex="1" parent="grUZeRGfLb8_Iu2T6s7t-140">
          <mxGeometry x="9.670196860339253" width="57" height="26" as="geometry" />
        </mxCell>
        <mxCell id="grUZeRGfLb8_Iu2T6s7t-143" value="«&lt;b&gt;Component&lt;/b&gt;»&lt;div&gt;Usuario&lt;/div&gt;" style="html=1;dropTarget=0;whiteSpace=wrap;" vertex="1" parent="grUZeRGfLb8_Iu2T6s7t-140">
          <mxGeometry x="19.36" y="45.66" width="150.64" height="35.12" as="geometry" />
        </mxCell>
        <mxCell id="grUZeRGfLb8_Iu2T6s7t-144" value="" style="shape=module;jettyWidth=8;jettyHeight=4;" vertex="1" parent="grUZeRGfLb8_Iu2T6s7t-143">
          <mxGeometry x="1" width="20" height="20" relative="1" as="geometry">
            <mxPoint x="-27" y="7" as="offset" />
          </mxGeometry>
        </mxCell>
        <mxCell id="grUZeRGfLb8_Iu2T6s7t-145" value="«&lt;b&gt;Component&lt;/b&gt;»&lt;div&gt;Producto&lt;/div&gt;" style="html=1;dropTarget=0;whiteSpace=wrap;" vertex="1" parent="grUZeRGfLb8_Iu2T6s7t-140">
          <mxGeometry x="19.36" y="88.97" width="150.64" height="35.12" as="geometry" />
        </mxCell>
        <mxCell id="grUZeRGfLb8_Iu2T6s7t-146" value="" style="shape=module;jettyWidth=8;jettyHeight=4;" vertex="1" parent="grUZeRGfLb8_Iu2T6s7t-145">
          <mxGeometry x="1" width="20" height="20" relative="1" as="geometry">
            <mxPoint x="-27" y="7" as="offset" />
          </mxGeometry>
        </mxCell>
        <mxCell id="grUZeRGfLb8_Iu2T6s7t-147" value="«&lt;b&gt;Component&lt;/b&gt;»&lt;div&gt;Inventario&lt;/div&gt;" style="html=1;dropTarget=0;whiteSpace=wrap;" vertex="1" parent="grUZeRGfLb8_Iu2T6s7t-140">
          <mxGeometry x="19.36" y="132.29" width="150.64" height="35.12" as="geometry" />
        </mxCell>
        <mxCell id="grUZeRGfLb8_Iu2T6s7t-148" value="" style="shape=module;jettyWidth=8;jettyHeight=4;" vertex="1" parent="grUZeRGfLb8_Iu2T6s7t-147">
          <mxGeometry x="1" width="20" height="20" relative="1" as="geometry">
            <mxPoint x="-27" y="7" as="offset" />
          </mxGeometry>
        </mxCell>
        <mxCell id="grUZeRGfLb8_Iu2T6s7t-151" value="«&lt;b&gt;Component&lt;/b&gt;»&lt;div&gt;Trasaccion&lt;/div&gt;" style="html=1;dropTarget=0;whiteSpace=wrap;" vertex="1" parent="grUZeRGfLb8_Iu2T6s7t-140">
          <mxGeometry x="19.36" y="313.76" width="150.64" height="35.12" as="geometry" />
        </mxCell>
        <mxCell id="grUZeRGfLb8_Iu2T6s7t-152" value="" style="shape=module;jettyWidth=8;jettyHeight=4;" vertex="1" parent="grUZeRGfLb8_Iu2T6s7t-151">
          <mxGeometry x="1" width="20" height="20" relative="1" as="geometry">
            <mxPoint x="-27" y="7" as="offset" />
          </mxGeometry>
        </mxCell>
        <mxCell id="grUZeRGfLb8_Iu2T6s7t-153" value="«&lt;b&gt;Component&lt;/b&gt;»&lt;div&gt;Material&lt;/div&gt;" style="html=1;dropTarget=0;whiteSpace=wrap;" vertex="1" parent="grUZeRGfLb8_Iu2T6s7t-140">
          <mxGeometry x="19.36" y="267.51" width="150.64" height="35.12" as="geometry" />
        </mxCell>
        <mxCell id="grUZeRGfLb8_Iu2T6s7t-154" value="" style="shape=module;jettyWidth=8;jettyHeight=4;" vertex="1" parent="grUZeRGfLb8_Iu2T6s7t-153">
          <mxGeometry x="1" width="20" height="20" relative="1" as="geometry">
            <mxPoint x="-27" y="7" as="offset" />
          </mxGeometry>
        </mxCell>
        <mxCell id="grUZeRGfLb8_Iu2T6s7t-155" value="«&lt;b&gt;Component&lt;/b&gt;»&lt;div&gt;Proveedor&lt;/div&gt;" style="html=1;dropTarget=0;whiteSpace=wrap;" vertex="1" parent="grUZeRGfLb8_Iu2T6s7t-140">
          <mxGeometry x="19.36" y="221.27" width="150.64" height="35.12" as="geometry" />
        </mxCell>
        <mxCell id="grUZeRGfLb8_Iu2T6s7t-156" value="" style="shape=module;jettyWidth=8;jettyHeight=4;" vertex="1" parent="grUZeRGfLb8_Iu2T6s7t-155">
          <mxGeometry x="1" width="20" height="20" relative="1" as="geometry">
            <mxPoint x="-27" y="7" as="offset" />
          </mxGeometry>
        </mxCell>
        <mxCell id="grUZeRGfLb8_Iu2T6s7t-149" value="«&lt;b&gt;Component&lt;/b&gt;»&lt;div&gt;Bodega&lt;/div&gt;" style="html=1;dropTarget=0;whiteSpace=wrap;" vertex="1" parent="grUZeRGfLb8_Iu2T6s7t-140">
          <mxGeometry x="19.36" y="175.61" width="150.64" height="35.12" as="geometry" />
        </mxCell>
        <mxCell id="grUZeRGfLb8_Iu2T6s7t-150" value="" style="shape=module;jettyWidth=8;jettyHeight=4;" vertex="1" parent="grUZeRGfLb8_Iu2T6s7t-149">
          <mxGeometry x="1" width="20" height="20" relative="1" as="geometry">
            <mxPoint x="-27" y="7" as="offset" />
          </mxGeometry>
        </mxCell>
        <mxCell id="grUZeRGfLb8_Iu2T6s7t-193" value="«&lt;b&gt;Component&lt;/b&gt;»&lt;div&gt;Enums&lt;/div&gt;" style="html=1;dropTarget=0;whiteSpace=wrap;" vertex="1" parent="grUZeRGfLb8_Iu2T6s7t-157">
          <mxGeometry x="300" y="373.81" width="150" height="45.31" as="geometry" />
        </mxCell>
        <mxCell id="grUZeRGfLb8_Iu2T6s7t-194" value="" style="shape=module;jettyWidth=8;jettyHeight=4;" vertex="1" parent="grUZeRGfLb8_Iu2T6s7t-193">
          <mxGeometry x="1" width="20" height="20" relative="1" as="geometry">
            <mxPoint x="-27" y="7" as="offset" />
          </mxGeometry>
        </mxCell>
        <mxCell id="grUZeRGfLb8_Iu2T6s7t-195" style="edgeStyle=orthogonalEdgeStyle;rounded=0;orthogonalLoop=1;jettySize=auto;html=1;exitX=1;exitY=0.5;exitDx=0;exitDy=0;entryX=0.5;entryY=0;entryDx=0;entryDy=0;" edge="1" parent="grUZeRGfLb8_Iu2T6s7t-157" source="grUZeRGfLb8_Iu2T6s7t-149" target="grUZeRGfLb8_Iu2T6s7t-193">
          <mxGeometry relative="1" as="geometry" />
        </mxCell>
        <mxCell id="grUZeRGfLb8_Iu2T6s7t-196" style="edgeStyle=orthogonalEdgeStyle;rounded=0;orthogonalLoop=1;jettySize=auto;html=1;exitX=1;exitY=0.5;exitDx=0;exitDy=0;entryX=0.5;entryY=0;entryDx=0;entryDy=0;" edge="1" parent="grUZeRGfLb8_Iu2T6s7t-157" source="grUZeRGfLb8_Iu2T6s7t-155" target="grUZeRGfLb8_Iu2T6s7t-193">
          <mxGeometry relative="1" as="geometry" />
        </mxCell>
        <mxCell id="grUZeRGfLb8_Iu2T6s7t-197" style="edgeStyle=orthogonalEdgeStyle;rounded=0;orthogonalLoop=1;jettySize=auto;html=1;exitX=1;exitY=0.5;exitDx=0;exitDy=0;entryX=0.5;entryY=0;entryDx=0;entryDy=0;" edge="1" parent="grUZeRGfLb8_Iu2T6s7t-157" source="grUZeRGfLb8_Iu2T6s7t-153" target="grUZeRGfLb8_Iu2T6s7t-193">
          <mxGeometry relative="1" as="geometry" />
        </mxCell>
        <mxCell id="grUZeRGfLb8_Iu2T6s7t-198" style="edgeStyle=orthogonalEdgeStyle;rounded=0;orthogonalLoop=1;jettySize=auto;html=1;exitX=1;exitY=0.5;exitDx=0;exitDy=0;entryX=0.5;entryY=0;entryDx=0;entryDy=0;" edge="1" parent="grUZeRGfLb8_Iu2T6s7t-157" source="grUZeRGfLb8_Iu2T6s7t-151" target="grUZeRGfLb8_Iu2T6s7t-193">
          <mxGeometry relative="1" as="geometry" />
        </mxCell>
        <mxCell id="grUZeRGfLb8_Iu2T6s7t-199" style="edgeStyle=orthogonalEdgeStyle;rounded=0;orthogonalLoop=1;jettySize=auto;html=1;exitX=1;exitY=0.25;exitDx=0;exitDy=0;entryX=0.5;entryY=0;entryDx=0;entryDy=0;" edge="1" parent="grUZeRGfLb8_Iu2T6s7t-157" source="grUZeRGfLb8_Iu2T6s7t-147" target="grUZeRGfLb8_Iu2T6s7t-193">
          <mxGeometry relative="1" as="geometry" />
        </mxCell>
        <mxCell id="grUZeRGfLb8_Iu2T6s7t-200" style="edgeStyle=orthogonalEdgeStyle;rounded=0;orthogonalLoop=1;jettySize=auto;html=1;exitX=1;exitY=0.25;exitDx=0;exitDy=0;entryX=0.5;entryY=0;entryDx=0;entryDy=0;" edge="1" parent="grUZeRGfLb8_Iu2T6s7t-157" source="grUZeRGfLb8_Iu2T6s7t-145" target="grUZeRGfLb8_Iu2T6s7t-193">
          <mxGeometry relative="1" as="geometry" />
        </mxCell>
        <mxCell id="grUZeRGfLb8_Iu2T6s7t-201" style="edgeStyle=orthogonalEdgeStyle;rounded=0;orthogonalLoop=1;jettySize=auto;html=1;exitX=1;exitY=0.25;exitDx=0;exitDy=0;" edge="1" parent="grUZeRGfLb8_Iu2T6s7t-157" source="grUZeRGfLb8_Iu2T6s7t-143" target="grUZeRGfLb8_Iu2T6s7t-193">
          <mxGeometry relative="1" as="geometry" />
        </mxCell>
        <mxCell id="grUZeRGfLb8_Iu2T6s7t-111" value="" style="shape=folder;fontStyle=1;spacingTop=10;tabWidth=40;tabHeight=14;tabPosition=left;html=1;whiteSpace=wrap;strokeColor=#000000;" vertex="1" parent="1">
          <mxGeometry x="250" y="280" width="680" height="390" as="geometry" />
        </mxCell>
        <mxCell id="grUZeRGfLb8_Iu2T6s7t-57" value="" style="shape=folder;fontStyle=1;spacingTop=10;tabWidth=40;tabHeight=14;tabPosition=left;html=1;whiteSpace=wrap;" vertex="1" parent="1">
          <mxGeometry x="250" y="710" width="680" height="410" as="geometry" />
        </mxCell>
        <mxCell id="grUZeRGfLb8_Iu2T6s7t-1" value="" style="shape=folder;fontStyle=1;spacingTop=10;tabWidth=40;tabHeight=14;tabPosition=left;html=1;whiteSpace=wrap;" vertex="1" parent="1">
          <mxGeometry x="90" y="40" width="430" height="210" as="geometry" />
        </mxCell>
        <mxCell id="grUZeRGfLb8_Iu2T6s7t-5" value="Infraestructura" style="shape=folder;fontStyle=1;spacingTop=10;tabWidth=40;tabHeight=14;tabPosition=left;html=1;whiteSpace=wrap;" vertex="1" parent="1">
          <mxGeometry x="1140" y="60" width="680" height="130" as="geometry" />
        </mxCell>
        <mxCell id="grUZeRGfLb8_Iu2T6s7t-213" style="edgeStyle=orthogonalEdgeStyle;rounded=0;orthogonalLoop=1;jettySize=auto;html=1;exitX=0;exitY=0.5;exitDx=0;exitDy=0;entryX=1;entryY=0;entryDx=0;entryDy=0;strokeColor=#FF0000;" edge="1" parent="1" source="grUZeRGfLb8_Iu2T6s7t-14" target="grUZeRGfLb8_Iu2T6s7t-43">
          <mxGeometry relative="1" as="geometry">
            <Array as="points">
              <mxPoint x="1030" y="110" />
              <mxPoint x="1030" y="460" />
            </Array>
          </mxGeometry>
        </mxCell>
        <mxCell id="grUZeRGfLb8_Iu2T6s7t-14" value="«&lt;b&gt;Component&lt;/b&gt;»&lt;div&gt;ExternalServiceAdapter&lt;/div&gt;" style="html=1;dropTarget=0;whiteSpace=wrap;" vertex="1" parent="1">
          <mxGeometry x="1150" y="90" width="180" height="40" as="geometry" />
        </mxCell>
        <mxCell id="grUZeRGfLb8_Iu2T6s7t-15" value="" style="shape=module;jettyWidth=8;jettyHeight=4;" vertex="1" parent="grUZeRGfLb8_Iu2T6s7t-14">
          <mxGeometry x="1" width="20" height="20" relative="1" as="geometry">
            <mxPoint x="-27" y="7" as="offset" />
          </mxGeometry>
        </mxCell>
        <mxCell id="grUZeRGfLb8_Iu2T6s7t-16" value="«&lt;b&gt;Component&lt;/b&gt;»&lt;div&gt;Utilitarios&lt;/div&gt;" style="html=1;dropTarget=0;whiteSpace=wrap;" vertex="1" parent="1">
          <mxGeometry x="1150" y="140" width="180" height="40" as="geometry" />
        </mxCell>
        <mxCell id="grUZeRGfLb8_Iu2T6s7t-17" value="" style="shape=module;jettyWidth=8;jettyHeight=4;" vertex="1" parent="grUZeRGfLb8_Iu2T6s7t-16">
          <mxGeometry x="1" width="20" height="20" relative="1" as="geometry">
            <mxPoint x="-27" y="7" as="offset" />
          </mxGeometry>
        </mxCell>
        <mxCell id="grUZeRGfLb8_Iu2T6s7t-87" style="edgeStyle=orthogonalEdgeStyle;rounded=0;orthogonalLoop=1;jettySize=auto;html=1;exitX=0.5;exitY=0;exitDx=0;exitDy=0;entryX=1.003;entryY=0.551;entryDx=0;entryDy=0;entryPerimeter=0;" edge="1" parent="1" source="grUZeRGfLb8_Iu2T6s7t-18" target="grUZeRGfLb8_Iu2T6s7t-20">
          <mxGeometry relative="1" as="geometry">
            <mxPoint x="510" y="202" as="targetPoint" />
            <Array as="points">
              <mxPoint x="1690" y="20" />
              <mxPoint x="570" y="20" />
              <mxPoint x="570" y="202" />
            </Array>
          </mxGeometry>
        </mxCell>
        <mxCell id="grUZeRGfLb8_Iu2T6s7t-88" style="edgeStyle=orthogonalEdgeStyle;rounded=0;orthogonalLoop=1;jettySize=auto;html=1;exitX=0.5;exitY=0;exitDx=0;exitDy=0;entryX=0.5;entryY=0;entryDx=0;entryDy=0;" edge="1" parent="1" source="grUZeRGfLb8_Iu2T6s7t-18" target="grUZeRGfLb8_Iu2T6s7t-24">
          <mxGeometry relative="1" as="geometry">
            <Array as="points">
              <mxPoint x="1690" y="20" />
              <mxPoint x="200" y="20" />
            </Array>
          </mxGeometry>
        </mxCell>
        <mxCell id="grUZeRGfLb8_Iu2T6s7t-18" value="«&lt;b&gt;Component&lt;/b&gt;»&lt;div&gt;ConfiguracionSeguridad&lt;/div&gt;" style="html=1;dropTarget=0;whiteSpace=wrap;" vertex="1" parent="1">
          <mxGeometry x="1590" y="90" width="200" height="40" as="geometry" />
        </mxCell>
        <mxCell id="grUZeRGfLb8_Iu2T6s7t-19" value="" style="shape=module;jettyWidth=8;jettyHeight=4;" vertex="1" parent="grUZeRGfLb8_Iu2T6s7t-18">
          <mxGeometry x="1" width="20" height="20" relative="1" as="geometry">
            <mxPoint x="-27" y="7" as="offset" />
          </mxGeometry>
        </mxCell>
        <mxCell id="grUZeRGfLb8_Iu2T6s7t-73" style="edgeStyle=orthogonalEdgeStyle;rounded=0;orthogonalLoop=1;jettySize=auto;html=1;exitX=0.5;exitY=1;exitDx=0;exitDy=0;entryX=0.25;entryY=0;entryDx=0;entryDy=0;strokeColor=#006600;" edge="1" parent="1" source="grUZeRGfLb8_Iu2T6s7t-20" target="grUZeRGfLb8_Iu2T6s7t-51">
          <mxGeometry relative="1" as="geometry" />
        </mxCell>
        <mxCell id="grUZeRGfLb8_Iu2T6s7t-221" value="Call" style="edgeLabel;html=1;align=center;verticalAlign=middle;resizable=0;points=[];" vertex="1" connectable="0" parent="grUZeRGfLb8_Iu2T6s7t-73">
          <mxGeometry x="0.7206" y="-2" relative="1" as="geometry">
            <mxPoint as="offset" />
          </mxGeometry>
        </mxCell>
        <mxCell id="grUZeRGfLb8_Iu2T6s7t-74" style="edgeStyle=orthogonalEdgeStyle;rounded=0;orthogonalLoop=1;jettySize=auto;html=1;entryX=0.5;entryY=0;entryDx=0;entryDy=0;strokeColor=#006600;" edge="1" parent="1" source="grUZeRGfLb8_Iu2T6s7t-20" target="grUZeRGfLb8_Iu2T6s7t-45">
          <mxGeometry relative="1" as="geometry">
            <Array as="points">
              <mxPoint x="414" y="310" />
              <mxPoint x="740" y="310" />
            </Array>
          </mxGeometry>
        </mxCell>
        <mxCell id="grUZeRGfLb8_Iu2T6s7t-222" value="Call" style="edgeLabel;html=1;align=center;verticalAlign=middle;resizable=0;points=[];" vertex="1" connectable="0" parent="grUZeRGfLb8_Iu2T6s7t-74">
          <mxGeometry x="0.8486" relative="1" as="geometry">
            <mxPoint as="offset" />
          </mxGeometry>
        </mxCell>
        <mxCell id="grUZeRGfLb8_Iu2T6s7t-75" style="edgeStyle=orthogonalEdgeStyle;rounded=0;orthogonalLoop=1;jettySize=auto;html=1;entryX=0;entryY=0.5;entryDx=0;entryDy=0;strokeColor=#006600;" edge="1" parent="1" source="grUZeRGfLb8_Iu2T6s7t-20" target="grUZeRGfLb8_Iu2T6s7t-53">
          <mxGeometry relative="1" as="geometry">
            <Array as="points">
              <mxPoint x="414" y="310" />
              <mxPoint x="300" y="310" />
              <mxPoint x="300" y="490" />
            </Array>
          </mxGeometry>
        </mxCell>
        <mxCell id="grUZeRGfLb8_Iu2T6s7t-231" value="Call" style="edgeLabel;html=1;align=center;verticalAlign=middle;resizable=0;points=[];" vertex="1" connectable="0" parent="grUZeRGfLb8_Iu2T6s7t-75">
          <mxGeometry x="0.9362" relative="1" as="geometry">
            <mxPoint x="-13" y="-38" as="offset" />
          </mxGeometry>
        </mxCell>
        <mxCell id="grUZeRGfLb8_Iu2T6s7t-76" style="edgeStyle=orthogonalEdgeStyle;rounded=0;orthogonalLoop=1;jettySize=auto;html=1;exitX=0.5;exitY=1;exitDx=0;exitDy=0;entryX=1;entryY=0.5;entryDx=0;entryDy=0;strokeColor=#006600;" edge="1" parent="1" source="grUZeRGfLb8_Iu2T6s7t-20" target="grUZeRGfLb8_Iu2T6s7t-43">
          <mxGeometry relative="1" as="geometry">
            <Array as="points">
              <mxPoint x="414" y="310" />
              <mxPoint x="890" y="310" />
              <mxPoint x="890" y="486" />
            </Array>
          </mxGeometry>
        </mxCell>
        <mxCell id="grUZeRGfLb8_Iu2T6s7t-224" value="Call" style="edgeLabel;html=1;align=center;verticalAlign=middle;resizable=0;points=[];" vertex="1" connectable="0" parent="grUZeRGfLb8_Iu2T6s7t-76">
          <mxGeometry x="0.9114" y="-2" relative="1" as="geometry">
            <mxPoint as="offset" />
          </mxGeometry>
        </mxCell>
        <mxCell id="grUZeRGfLb8_Iu2T6s7t-77" style="edgeStyle=orthogonalEdgeStyle;rounded=0;orthogonalLoop=1;jettySize=auto;html=1;entryX=0;entryY=0.5;entryDx=0;entryDy=0;strokeColor=#006600;" edge="1" parent="1" source="grUZeRGfLb8_Iu2T6s7t-20" target="grUZeRGfLb8_Iu2T6s7t-49">
          <mxGeometry relative="1" as="geometry">
            <Array as="points">
              <mxPoint x="414" y="310" />
              <mxPoint x="280" y="310" />
              <mxPoint x="280" y="555" />
            </Array>
          </mxGeometry>
        </mxCell>
        <mxCell id="grUZeRGfLb8_Iu2T6s7t-232" value="Call" style="edgeLabel;html=1;align=center;verticalAlign=middle;resizable=0;points=[];" vertex="1" connectable="0" parent="grUZeRGfLb8_Iu2T6s7t-77">
          <mxGeometry x="0.6938" y="1" relative="1" as="geometry">
            <mxPoint as="offset" />
          </mxGeometry>
        </mxCell>
        <mxCell id="grUZeRGfLb8_Iu2T6s7t-78" style="edgeStyle=orthogonalEdgeStyle;rounded=0;orthogonalLoop=1;jettySize=auto;html=1;exitX=0.5;exitY=1;exitDx=0;exitDy=0;entryX=1;entryY=0.5;entryDx=0;entryDy=0;strokeColor=#006600;" edge="1" parent="1" source="grUZeRGfLb8_Iu2T6s7t-20" target="grUZeRGfLb8_Iu2T6s7t-47">
          <mxGeometry relative="1" as="geometry">
            <Array as="points">
              <mxPoint x="414" y="310" />
              <mxPoint x="890" y="310" />
              <mxPoint x="890" y="545" />
            </Array>
          </mxGeometry>
        </mxCell>
        <mxCell id="grUZeRGfLb8_Iu2T6s7t-223" value="Call" style="edgeLabel;html=1;align=center;verticalAlign=middle;resizable=0;points=[];" vertex="1" connectable="0" parent="grUZeRGfLb8_Iu2T6s7t-78">
          <mxGeometry x="0.9175" y="1" relative="1" as="geometry">
            <mxPoint as="offset" />
          </mxGeometry>
        </mxCell>
        <mxCell id="grUZeRGfLb8_Iu2T6s7t-79" style="edgeStyle=orthogonalEdgeStyle;rounded=0;orthogonalLoop=1;jettySize=auto;html=1;entryX=0.004;entryY=0.799;entryDx=0;entryDy=0;strokeColor=#006600;entryPerimeter=0;" edge="1" parent="1" target="grUZeRGfLb8_Iu2T6s7t-55">
          <mxGeometry relative="1" as="geometry">
            <mxPoint x="414.00234567901236" y="220" as="sourcePoint" />
            <mxPoint x="319.99" y="615" as="targetPoint" />
            <Array as="points">
              <mxPoint x="414" y="310" />
              <mxPoint x="270" y="310" />
              <mxPoint x="270" y="630" />
            </Array>
          </mxGeometry>
        </mxCell>
        <mxCell id="grUZeRGfLb8_Iu2T6s7t-225" value="Call" style="edgeLabel;html=1;align=center;verticalAlign=middle;resizable=0;points=[];" vertex="1" connectable="0" parent="grUZeRGfLb8_Iu2T6s7t-79">
          <mxGeometry x="0.7883" y="-1" relative="1" as="geometry">
            <mxPoint as="offset" />
          </mxGeometry>
        </mxCell>
        <mxCell id="grUZeRGfLb8_Iu2T6s7t-20" value="«&lt;b&gt;Component&lt;/b&gt;»&lt;div&gt;WebController&lt;/div&gt;" style="html=1;dropTarget=0;whiteSpace=wrap;" vertex="1" parent="1">
          <mxGeometry x="324" y="180" width="180" height="40" as="geometry" />
        </mxCell>
        <mxCell id="grUZeRGfLb8_Iu2T6s7t-21" value="" style="shape=module;jettyWidth=8;jettyHeight=4;" vertex="1" parent="grUZeRGfLb8_Iu2T6s7t-20">
          <mxGeometry x="1" width="20" height="20" relative="1" as="geometry">
            <mxPoint x="-27" y="7" as="offset" />
          </mxGeometry>
        </mxCell>
        <mxCell id="grUZeRGfLb8_Iu2T6s7t-80" style="edgeStyle=orthogonalEdgeStyle;rounded=0;orthogonalLoop=1;jettySize=auto;html=1;entryX=0;entryY=0.5;entryDx=0;entryDy=0;exitX=0.5;exitY=1;exitDx=0;exitDy=0;strokeColor=#FF8000;" edge="1" parent="1" source="grUZeRGfLb8_Iu2T6s7t-24" target="grUZeRGfLb8_Iu2T6s7t-51">
          <mxGeometry relative="1" as="geometry" />
        </mxCell>
        <mxCell id="grUZeRGfLb8_Iu2T6s7t-81" style="edgeStyle=orthogonalEdgeStyle;rounded=0;orthogonalLoop=1;jettySize=auto;html=1;exitX=0.5;exitY=1;exitDx=0;exitDy=0;entryX=0;entryY=0.25;entryDx=0;entryDy=0;strokeColor=#FF8000;" edge="1" parent="1" source="grUZeRGfLb8_Iu2T6s7t-24" target="grUZeRGfLb8_Iu2T6s7t-53">
          <mxGeometry relative="1" as="geometry" />
        </mxCell>
        <mxCell id="grUZeRGfLb8_Iu2T6s7t-82" style="edgeStyle=orthogonalEdgeStyle;rounded=0;orthogonalLoop=1;jettySize=auto;html=1;entryX=0;entryY=0.25;entryDx=0;entryDy=0;exitX=0.5;exitY=1;exitDx=0;exitDy=0;strokeColor=#FF8000;" edge="1" parent="1" source="grUZeRGfLb8_Iu2T6s7t-24" target="grUZeRGfLb8_Iu2T6s7t-49">
          <mxGeometry relative="1" as="geometry" />
        </mxCell>
        <mxCell id="grUZeRGfLb8_Iu2T6s7t-83" style="edgeStyle=orthogonalEdgeStyle;rounded=0;orthogonalLoop=1;jettySize=auto;html=1;entryX=0;entryY=0.25;entryDx=0;entryDy=0;exitX=0.5;exitY=1;exitDx=0;exitDy=0;strokeColor=#FF8000;" edge="1" parent="1" source="grUZeRGfLb8_Iu2T6s7t-24" target="grUZeRGfLb8_Iu2T6s7t-55">
          <mxGeometry relative="1" as="geometry" />
        </mxCell>
        <mxCell id="grUZeRGfLb8_Iu2T6s7t-85" style="edgeStyle=orthogonalEdgeStyle;rounded=0;orthogonalLoop=1;jettySize=auto;html=1;exitX=0.5;exitY=1;exitDx=0;exitDy=0;entryX=1;entryY=0.25;entryDx=0;entryDy=0;strokeColor=#FF8000;" edge="1" parent="1" source="grUZeRGfLb8_Iu2T6s7t-24" target="grUZeRGfLb8_Iu2T6s7t-43">
          <mxGeometry relative="1" as="geometry">
            <Array as="points">
              <mxPoint x="200" y="320" />
              <mxPoint x="840" y="320" />
              <mxPoint x="840" y="473" />
            </Array>
          </mxGeometry>
        </mxCell>
        <mxCell id="grUZeRGfLb8_Iu2T6s7t-86" style="edgeStyle=orthogonalEdgeStyle;rounded=0;orthogonalLoop=1;jettySize=auto;html=1;exitX=0.5;exitY=1;exitDx=0;exitDy=0;entryX=1;entryY=0.25;entryDx=0;entryDy=0;strokeColor=#FF8000;" edge="1" parent="1" source="grUZeRGfLb8_Iu2T6s7t-24" target="grUZeRGfLb8_Iu2T6s7t-47">
          <mxGeometry relative="1" as="geometry">
            <Array as="points">
              <mxPoint x="200" y="320" />
              <mxPoint x="840" y="320" />
              <mxPoint x="840" y="533" />
            </Array>
          </mxGeometry>
        </mxCell>
        <mxCell id="grUZeRGfLb8_Iu2T6s7t-24" value="«&lt;b&gt;Component&lt;/b&gt;»&lt;div&gt;RestController&lt;/div&gt;" style="html=1;dropTarget=0;whiteSpace=wrap;" vertex="1" parent="1">
          <mxGeometry x="110" y="70" width="180" height="40" as="geometry" />
        </mxCell>
        <mxCell id="grUZeRGfLb8_Iu2T6s7t-25" value="" style="shape=module;jettyWidth=8;jettyHeight=4;" vertex="1" parent="grUZeRGfLb8_Iu2T6s7t-24">
          <mxGeometry x="1" width="20" height="20" relative="1" as="geometry">
            <mxPoint x="-27" y="7" as="offset" />
          </mxGeometry>
        </mxCell>
        <mxCell id="grUZeRGfLb8_Iu2T6s7t-72" style="edgeStyle=orthogonalEdgeStyle;rounded=0;orthogonalLoop=1;jettySize=auto;html=1;exitX=0.5;exitY=1;exitDx=0;exitDy=0;entryX=0.5;entryY=0;entryDx=0;entryDy=0;" edge="1" parent="1" source="grUZeRGfLb8_Iu2T6s7t-38" target="grUZeRGfLb8_Iu2T6s7t-20">
          <mxGeometry relative="1" as="geometry" />
        </mxCell>
        <mxCell id="grUZeRGfLb8_Iu2T6s7t-38" value="«&lt;b&gt;Component&lt;/b&gt;»&lt;div&gt;ViewEngine&lt;/div&gt;" style="html=1;dropTarget=0;whiteSpace=wrap;" vertex="1" parent="1">
          <mxGeometry x="324" y="70" width="180" height="40" as="geometry" />
        </mxCell>
        <mxCell id="grUZeRGfLb8_Iu2T6s7t-39" value="" style="shape=module;jettyWidth=8;jettyHeight=4;" vertex="1" parent="grUZeRGfLb8_Iu2T6s7t-38">
          <mxGeometry x="1" width="20" height="20" relative="1" as="geometry">
            <mxPoint x="-27" y="7" as="offset" />
          </mxGeometry>
        </mxCell>
        <mxCell id="grUZeRGfLb8_Iu2T6s7t-202" style="edgeStyle=orthogonalEdgeStyle;rounded=0;orthogonalLoop=1;jettySize=auto;html=1;exitX=0.5;exitY=1;exitDx=0;exitDy=0;" edge="1" parent="1" source="grUZeRGfLb8_Iu2T6s7t-41" target="grUZeRGfLb8_Iu2T6s7t-127">
          <mxGeometry relative="1" as="geometry">
            <Array as="points">
              <mxPoint x="1690" y="990" />
              <mxPoint x="600" y="990" />
            </Array>
          </mxGeometry>
        </mxCell>
        <mxCell id="grUZeRGfLb8_Iu2T6s7t-41" value="«&lt;b&gt;Component&lt;/b&gt;»&lt;div&gt;DataBaseConfiguracion&lt;/div&gt;" style="html=1;dropTarget=0;whiteSpace=wrap;" vertex="1" parent="1">
          <mxGeometry x="1590" y="140" width="200" height="40" as="geometry" />
        </mxCell>
        <mxCell id="grUZeRGfLb8_Iu2T6s7t-42" value="" style="shape=module;jettyWidth=8;jettyHeight=4;" vertex="1" parent="grUZeRGfLb8_Iu2T6s7t-41">
          <mxGeometry x="1" width="20" height="20" relative="1" as="geometry">
            <mxPoint x="-27" y="7" as="offset" />
          </mxGeometry>
        </mxCell>
        <mxCell id="grUZeRGfLb8_Iu2T6s7t-116" style="edgeStyle=orthogonalEdgeStyle;rounded=0;orthogonalLoop=1;jettySize=auto;html=1;exitX=0;exitY=0.5;exitDx=0;exitDy=0;strokeColor=#7F00FF;" edge="1" parent="1" source="grUZeRGfLb8_Iu2T6s7t-43" target="grUZeRGfLb8_Iu2T6s7t-59">
          <mxGeometry relative="1" as="geometry">
            <Array as="points">
              <mxPoint x="660" y="470" />
              <mxPoint x="580" y="470" />
            </Array>
          </mxGeometry>
        </mxCell>
        <mxCell id="grUZeRGfLb8_Iu2T6s7t-125" style="edgeStyle=orthogonalEdgeStyle;rounded=0;orthogonalLoop=1;jettySize=auto;html=1;exitX=0;exitY=0.75;exitDx=0;exitDy=0;entryX=0;entryY=0.75;entryDx=0;entryDy=0;strokeColor=#CC00CC;" edge="1" parent="1" source="grUZeRGfLb8_Iu2T6s7t-43" target="grUZeRGfLb8_Iu2T6s7t-100">
          <mxGeometry relative="1" as="geometry">
            <Array as="points">
              <mxPoint x="640" y="499" />
              <mxPoint x="640" y="878" />
            </Array>
          </mxGeometry>
        </mxCell>
        <mxCell id="grUZeRGfLb8_Iu2T6s7t-216" value="Use" style="edgeLabel;html=1;align=center;verticalAlign=middle;resizable=0;points=[];" vertex="1" connectable="0" parent="grUZeRGfLb8_Iu2T6s7t-125">
          <mxGeometry x="0.0361" y="-1" relative="1" as="geometry">
            <mxPoint as="offset" />
          </mxGeometry>
        </mxCell>
        <mxCell id="grUZeRGfLb8_Iu2T6s7t-205" style="edgeStyle=orthogonalEdgeStyle;rounded=0;orthogonalLoop=1;jettySize=auto;html=1;exitX=1;exitY=0.75;exitDx=0;exitDy=0;" edge="1" parent="1" source="grUZeRGfLb8_Iu2T6s7t-43" target="grUZeRGfLb8_Iu2T6s7t-16">
          <mxGeometry relative="1" as="geometry">
            <mxPoint x="1240" y="180" as="targetPoint" />
          </mxGeometry>
        </mxCell>
        <mxCell id="grUZeRGfLb8_Iu2T6s7t-43" value="&lt;div&gt;«&lt;b&gt;Component&lt;/b&gt;»&lt;/div&gt;UsuarioService" style="html=1;dropTarget=0;whiteSpace=wrap;align=center;" vertex="1" parent="1">
          <mxGeometry x="660" y="460" width="160" height="51.59" as="geometry" />
        </mxCell>
        <mxCell id="grUZeRGfLb8_Iu2T6s7t-44" value="" style="shape=module;jettyWidth=8;jettyHeight=4;align=center;" vertex="1" parent="grUZeRGfLb8_Iu2T6s7t-43">
          <mxGeometry x="1" width="20" height="20" relative="1" as="geometry">
            <mxPoint x="-27" y="7" as="offset" />
          </mxGeometry>
        </mxCell>
        <mxCell id="grUZeRGfLb8_Iu2T6s7t-114" style="edgeStyle=orthogonalEdgeStyle;rounded=0;orthogonalLoop=1;jettySize=auto;html=1;exitX=0;exitY=0.5;exitDx=0;exitDy=0;entryX=0.5;entryY=1;entryDx=0;entryDy=0;strokeColor=#7F00FF;" edge="1" parent="1" source="grUZeRGfLb8_Iu2T6s7t-45" target="grUZeRGfLb8_Iu2T6s7t-59">
          <mxGeometry relative="1" as="geometry">
            <Array as="points">
              <mxPoint x="660" y="410" />
              <mxPoint x="580" y="410" />
            </Array>
          </mxGeometry>
        </mxCell>
        <mxCell id="grUZeRGfLb8_Iu2T6s7t-126" style="edgeStyle=orthogonalEdgeStyle;rounded=0;orthogonalLoop=1;jettySize=auto;html=1;exitX=0;exitY=0.75;exitDx=0;exitDy=0;entryX=0;entryY=0.75;entryDx=0;entryDy=0;strokeColor=#CC00CC;" edge="1" parent="1" source="grUZeRGfLb8_Iu2T6s7t-45" target="grUZeRGfLb8_Iu2T6s7t-106">
          <mxGeometry relative="1" as="geometry">
            <Array as="points">
              <mxPoint x="650" y="437" />
              <mxPoint x="650" y="817" />
            </Array>
          </mxGeometry>
        </mxCell>
        <mxCell id="grUZeRGfLb8_Iu2T6s7t-214" value="Use" style="edgeLabel;html=1;align=center;verticalAlign=middle;resizable=0;points=[];" vertex="1" connectable="0" parent="grUZeRGfLb8_Iu2T6s7t-126">
          <mxGeometry x="0.0539" y="1" relative="1" as="geometry">
            <mxPoint as="offset" />
          </mxGeometry>
        </mxCell>
        <mxCell id="grUZeRGfLb8_Iu2T6s7t-204" style="edgeStyle=orthogonalEdgeStyle;rounded=0;orthogonalLoop=1;jettySize=auto;html=1;exitX=1;exitY=0.5;exitDx=0;exitDy=0;" edge="1" parent="1" source="grUZeRGfLb8_Iu2T6s7t-45" target="grUZeRGfLb8_Iu2T6s7t-16">
          <mxGeometry relative="1" as="geometry" />
        </mxCell>
        <mxCell id="grUZeRGfLb8_Iu2T6s7t-45" value="&lt;div&gt;«&lt;b&gt;Component&lt;/b&gt;»&lt;/div&gt;ProductoService" style="html=1;dropTarget=0;whiteSpace=wrap;align=center;" vertex="1" parent="1">
          <mxGeometry x="660" y="400" width="160" height="50" as="geometry" />
        </mxCell>
        <mxCell id="grUZeRGfLb8_Iu2T6s7t-46" value="" style="shape=module;jettyWidth=8;jettyHeight=4;align=center;" vertex="1" parent="grUZeRGfLb8_Iu2T6s7t-45">
          <mxGeometry x="1" width="20" height="20" relative="1" as="geometry">
            <mxPoint x="-27" y="7" as="offset" />
          </mxGeometry>
        </mxCell>
        <mxCell id="grUZeRGfLb8_Iu2T6s7t-118" style="edgeStyle=orthogonalEdgeStyle;rounded=0;orthogonalLoop=1;jettySize=auto;html=1;exitX=0;exitY=0.25;exitDx=0;exitDy=0;strokeColor=#7F00FF;" edge="1" parent="1" source="grUZeRGfLb8_Iu2T6s7t-47" target="grUZeRGfLb8_Iu2T6s7t-59">
          <mxGeometry relative="1" as="geometry" />
        </mxCell>
        <mxCell id="grUZeRGfLb8_Iu2T6s7t-124" style="edgeStyle=orthogonalEdgeStyle;rounded=0;orthogonalLoop=1;jettySize=auto;html=1;exitX=0;exitY=0.75;exitDx=0;exitDy=0;entryX=0;entryY=0.75;entryDx=0;entryDy=0;strokeColor=#CC00CC;" edge="1" parent="1">
          <mxGeometry relative="1" as="geometry">
            <mxPoint x="650" y="557.5" as="sourcePoint" />
            <mxPoint x="650" y="937.5" as="targetPoint" />
            <Array as="points">
              <mxPoint x="620" y="557" />
              <mxPoint x="620" y="937" />
            </Array>
          </mxGeometry>
        </mxCell>
        <mxCell id="grUZeRGfLb8_Iu2T6s7t-215" value="Use" style="edgeLabel;html=1;align=center;verticalAlign=middle;resizable=0;points=[];" vertex="1" connectable="0" parent="grUZeRGfLb8_Iu2T6s7t-124">
          <mxGeometry x="-0.5755" relative="1" as="geometry">
            <mxPoint as="offset" />
          </mxGeometry>
        </mxCell>
        <mxCell id="grUZeRGfLb8_Iu2T6s7t-206" style="edgeStyle=orthogonalEdgeStyle;rounded=0;orthogonalLoop=1;jettySize=auto;html=1;exitX=1;exitY=0.75;exitDx=0;exitDy=0;entryX=0.5;entryY=1;entryDx=0;entryDy=0;" edge="1" parent="1" source="grUZeRGfLb8_Iu2T6s7t-47" target="grUZeRGfLb8_Iu2T6s7t-16">
          <mxGeometry relative="1" as="geometry" />
        </mxCell>
        <mxCell id="grUZeRGfLb8_Iu2T6s7t-47" value="«&lt;b&gt;Component&lt;/b&gt;»&lt;div&gt;InventarioService&lt;/div&gt;" style="html=1;dropTarget=0;whiteSpace=wrap;align=center;" vertex="1" parent="1">
          <mxGeometry x="660" y="520" width="160" height="50" as="geometry" />
        </mxCell>
        <mxCell id="grUZeRGfLb8_Iu2T6s7t-48" value="" style="shape=module;jettyWidth=8;jettyHeight=4;align=center;" vertex="1" parent="grUZeRGfLb8_Iu2T6s7t-47">
          <mxGeometry x="1" width="20" height="20" relative="1" as="geometry">
            <mxPoint x="-27" y="7" as="offset" />
          </mxGeometry>
        </mxCell>
        <mxCell id="grUZeRGfLb8_Iu2T6s7t-117" style="edgeStyle=orthogonalEdgeStyle;rounded=0;orthogonalLoop=1;jettySize=auto;html=1;exitX=1;exitY=0.5;exitDx=0;exitDy=0;entryX=0.5;entryY=1;entryDx=0;entryDy=0;strokeColor=#7F00FF;" edge="1" parent="1" source="grUZeRGfLb8_Iu2T6s7t-49" target="grUZeRGfLb8_Iu2T6s7t-59">
          <mxGeometry relative="1" as="geometry" />
        </mxCell>
        <mxCell id="grUZeRGfLb8_Iu2T6s7t-49" value="«&lt;b&gt;Component&lt;/b&gt;»&lt;div&gt;BodegaService&lt;/div&gt;" style="html=1;dropTarget=0;whiteSpace=wrap;align=center;" vertex="1" parent="1">
          <mxGeometry x="320" y="530" width="180" height="50" as="geometry" />
        </mxCell>
        <mxCell id="grUZeRGfLb8_Iu2T6s7t-50" value="" style="shape=module;jettyWidth=8;jettyHeight=4;align=center;" vertex="1" parent="grUZeRGfLb8_Iu2T6s7t-49">
          <mxGeometry x="1" width="20" height="20" relative="1" as="geometry">
            <mxPoint x="-27" y="7" as="offset" />
          </mxGeometry>
        </mxCell>
        <mxCell id="grUZeRGfLb8_Iu2T6s7t-113" style="edgeStyle=orthogonalEdgeStyle;rounded=0;orthogonalLoop=1;jettySize=auto;html=1;exitX=1;exitY=0.5;exitDx=0;exitDy=0;entryX=0.5;entryY=1;entryDx=0;entryDy=0;strokeColor=#7F00FF;" edge="1" parent="1" source="grUZeRGfLb8_Iu2T6s7t-51" target="grUZeRGfLb8_Iu2T6s7t-59">
          <mxGeometry relative="1" as="geometry" />
        </mxCell>
        <mxCell id="grUZeRGfLb8_Iu2T6s7t-123" style="edgeStyle=orthogonalEdgeStyle;rounded=0;orthogonalLoop=1;jettySize=auto;html=1;exitX=1;exitY=0.75;exitDx=0;exitDy=0;entryX=1;entryY=0.75;entryDx=0;entryDy=0;strokeColor=#CC00CC;" edge="1" parent="1" source="grUZeRGfLb8_Iu2T6s7t-51" target="grUZeRGfLb8_Iu2T6s7t-104">
          <mxGeometry relative="1" as="geometry">
            <Array as="points">
              <mxPoint x="510" y="439" />
              <mxPoint x="510" y="817" />
            </Array>
          </mxGeometry>
        </mxCell>
        <mxCell id="grUZeRGfLb8_Iu2T6s7t-219" value="Use" style="edgeLabel;html=1;align=center;verticalAlign=middle;resizable=0;points=[];" vertex="1" connectable="0" parent="grUZeRGfLb8_Iu2T6s7t-123">
          <mxGeometry x="0.5787" y="1" relative="1" as="geometry">
            <mxPoint as="offset" />
          </mxGeometry>
        </mxCell>
        <mxCell id="grUZeRGfLb8_Iu2T6s7t-212" style="edgeStyle=orthogonalEdgeStyle;rounded=0;orthogonalLoop=1;jettySize=auto;html=1;exitX=1;exitY=0.25;exitDx=0;exitDy=0;entryX=0.5;entryY=1;entryDx=0;entryDy=0;" edge="1" parent="1" source="grUZeRGfLb8_Iu2T6s7t-51" target="grUZeRGfLb8_Iu2T6s7t-16">
          <mxGeometry relative="1" as="geometry">
            <Array as="points">
              <mxPoint x="560" y="413" />
              <mxPoint x="560" y="590" />
              <mxPoint x="1240" y="590" />
            </Array>
          </mxGeometry>
        </mxCell>
        <mxCell id="grUZeRGfLb8_Iu2T6s7t-51" value="&lt;div&gt;«&lt;b&gt;Component&lt;/b&gt;»&lt;/div&gt;Proveedor&lt;span style=&quot;&quot;&gt;Service&lt;/span&gt;" style="html=1;dropTarget=0;whiteSpace=wrap;align=center;" vertex="1" parent="1">
          <mxGeometry x="320" y="400" width="180" height="51.59" as="geometry" />
        </mxCell>
        <mxCell id="grUZeRGfLb8_Iu2T6s7t-52" value="" style="shape=module;jettyWidth=8;jettyHeight=4;align=center;" vertex="1" parent="grUZeRGfLb8_Iu2T6s7t-51">
          <mxGeometry x="1" width="20" height="20" relative="1" as="geometry">
            <mxPoint x="-27" y="7" as="offset" />
          </mxGeometry>
        </mxCell>
        <mxCell id="grUZeRGfLb8_Iu2T6s7t-115" style="edgeStyle=orthogonalEdgeStyle;rounded=0;orthogonalLoop=1;jettySize=auto;html=1;exitX=1;exitY=0.5;exitDx=0;exitDy=0;entryX=0.5;entryY=1;entryDx=0;entryDy=0;strokeColor=#7F00FF;" edge="1" parent="1" source="grUZeRGfLb8_Iu2T6s7t-53" target="grUZeRGfLb8_Iu2T6s7t-59">
          <mxGeometry relative="1" as="geometry" />
        </mxCell>
        <mxCell id="grUZeRGfLb8_Iu2T6s7t-122" style="edgeStyle=orthogonalEdgeStyle;rounded=0;orthogonalLoop=1;jettySize=auto;html=1;exitX=1;exitY=0.75;exitDx=0;exitDy=0;entryX=1;entryY=0.75;entryDx=0;entryDy=0;strokeColor=#CC00CC;" edge="1" parent="1" source="grUZeRGfLb8_Iu2T6s7t-53" target="grUZeRGfLb8_Iu2T6s7t-102">
          <mxGeometry relative="1" as="geometry" />
        </mxCell>
        <mxCell id="grUZeRGfLb8_Iu2T6s7t-220" value="Use" style="edgeLabel;html=1;align=center;verticalAlign=middle;resizable=0;points=[];" vertex="1" connectable="0" parent="grUZeRGfLb8_Iu2T6s7t-122">
          <mxGeometry x="0.7594" y="-1" relative="1" as="geometry">
            <mxPoint as="offset" />
          </mxGeometry>
        </mxCell>
        <mxCell id="grUZeRGfLb8_Iu2T6s7t-209" style="edgeStyle=orthogonalEdgeStyle;rounded=0;orthogonalLoop=1;jettySize=auto;html=1;exitX=1;exitY=0.25;exitDx=0;exitDy=0;" edge="1" parent="1" source="grUZeRGfLb8_Iu2T6s7t-53" target="grUZeRGfLb8_Iu2T6s7t-16">
          <mxGeometry relative="1" as="geometry">
            <Array as="points">
              <mxPoint x="560" y="478" />
              <mxPoint x="560" y="590" />
              <mxPoint x="1240" y="590" />
            </Array>
          </mxGeometry>
        </mxCell>
        <mxCell id="grUZeRGfLb8_Iu2T6s7t-53" value="&lt;div&gt;&lt;span style=&quot;background-color: transparent; color: light-dark(rgb(0, 0, 0), rgb(255, 255, 255));&quot;&gt;«&lt;/span&gt;&lt;b style=&quot;background-color: transparent; color: light-dark(rgb(0, 0, 0), rgb(255, 255, 255));&quot;&gt;Component&lt;/b&gt;&lt;span style=&quot;background-color: transparent; color: light-dark(rgb(0, 0, 0), rgb(255, 255, 255));&quot;&gt;»&lt;/span&gt;&lt;/div&gt;&lt;div&gt;&lt;span style=&quot;background-color: transparent; color: light-dark(rgb(0, 0, 0), rgb(255, 255, 255));&quot;&gt;Material&lt;/span&gt;&lt;span style=&quot;background-color: transparent; color: light-dark(rgb(0, 0, 0), rgb(255, 255, 255));&quot;&gt;Service&lt;/span&gt;&lt;/div&gt;" style="html=1;dropTarget=0;whiteSpace=wrap;align=center;" vertex="1" parent="1">
          <mxGeometry x="320" y="465" width="180" height="50" as="geometry" />
        </mxCell>
        <mxCell id="grUZeRGfLb8_Iu2T6s7t-54" value="" style="shape=module;jettyWidth=8;jettyHeight=4;align=center;" vertex="1" parent="grUZeRGfLb8_Iu2T6s7t-53">
          <mxGeometry x="1" width="20" height="20" relative="1" as="geometry">
            <mxPoint x="-27" y="7" as="offset" />
          </mxGeometry>
        </mxCell>
        <mxCell id="grUZeRGfLb8_Iu2T6s7t-119" style="edgeStyle=orthogonalEdgeStyle;rounded=0;orthogonalLoop=1;jettySize=auto;html=1;exitX=1;exitY=0.5;exitDx=0;exitDy=0;entryX=0.5;entryY=1;entryDx=0;entryDy=0;strokeColor=#7F00FF;" edge="1" parent="1" source="grUZeRGfLb8_Iu2T6s7t-55" target="grUZeRGfLb8_Iu2T6s7t-59">
          <mxGeometry relative="1" as="geometry" />
        </mxCell>
        <mxCell id="grUZeRGfLb8_Iu2T6s7t-120" style="edgeStyle=orthogonalEdgeStyle;rounded=0;orthogonalLoop=1;jettySize=auto;html=1;exitX=1;exitY=0.75;exitDx=0;exitDy=0;entryX=1;entryY=0.75;entryDx=0;entryDy=0;strokeColor=#CC00CC;" edge="1" parent="1" source="grUZeRGfLb8_Iu2T6s7t-55" target="grUZeRGfLb8_Iu2T6s7t-94">
          <mxGeometry relative="1" as="geometry">
            <Array as="points">
              <mxPoint x="550" y="628" />
              <mxPoint x="550" y="1001" />
            </Array>
          </mxGeometry>
        </mxCell>
        <mxCell id="grUZeRGfLb8_Iu2T6s7t-218" value="Use" style="edgeLabel;html=1;align=center;verticalAlign=middle;resizable=0;points=[];" vertex="1" connectable="0" parent="grUZeRGfLb8_Iu2T6s7t-120">
          <mxGeometry x="0.1616" y="-1" relative="1" as="geometry">
            <mxPoint as="offset" />
          </mxGeometry>
        </mxCell>
        <mxCell id="grUZeRGfLb8_Iu2T6s7t-207" style="edgeStyle=orthogonalEdgeStyle;rounded=0;orthogonalLoop=1;jettySize=auto;html=1;exitX=0.5;exitY=1;exitDx=0;exitDy=0;entryX=0.5;entryY=1;entryDx=0;entryDy=0;" edge="1" parent="1" source="grUZeRGfLb8_Iu2T6s7t-55" target="grUZeRGfLb8_Iu2T6s7t-16">
          <mxGeometry relative="1" as="geometry">
            <mxPoint x="1240" y="210" as="targetPoint" />
          </mxGeometry>
        </mxCell>
        <mxCell id="grUZeRGfLb8_Iu2T6s7t-208" style="edgeStyle=orthogonalEdgeStyle;rounded=0;orthogonalLoop=1;jettySize=auto;html=1;exitX=1;exitY=0.25;exitDx=0;exitDy=0;entryX=0.5;entryY=1;entryDx=0;entryDy=0;" edge="1" parent="1" source="grUZeRGfLb8_Iu2T6s7t-49" target="grUZeRGfLb8_Iu2T6s7t-16">
          <mxGeometry relative="1" as="geometry">
            <mxPoint x="1240" y="210" as="targetPoint" />
            <Array as="points">
              <mxPoint x="560" y="543" />
              <mxPoint x="560" y="590" />
              <mxPoint x="1240" y="590" />
            </Array>
          </mxGeometry>
        </mxCell>
        <mxCell id="grUZeRGfLb8_Iu2T6s7t-55" value="«&lt;b&gt;Component&lt;/b&gt;»&lt;div&gt;Trasaccion&lt;span style=&quot;&quot;&gt;Service&lt;/span&gt;&lt;/div&gt;" style="html=1;dropTarget=0;whiteSpace=wrap;align=center;" vertex="1" parent="1">
          <mxGeometry x="320" y="590" width="180" height="50" as="geometry" />
        </mxCell>
        <mxCell id="grUZeRGfLb8_Iu2T6s7t-56" value="" style="shape=module;jettyWidth=8;jettyHeight=4;align=center;" vertex="1" parent="grUZeRGfLb8_Iu2T6s7t-55">
          <mxGeometry x="1" width="20" height="20" relative="1" as="geometry">
            <mxPoint x="-27" y="7" as="offset" />
          </mxGeometry>
        </mxCell>
        <mxCell id="grUZeRGfLb8_Iu2T6s7t-59" value="«&lt;b&gt;Component&lt;/b&gt;»&lt;div&gt;DTOMapper&lt;/div&gt;" style="html=1;dropTarget=0;whiteSpace=wrap;align=center;" vertex="1" parent="1">
          <mxGeometry x="510" y="330" width="140" height="50" as="geometry" />
        </mxCell>
        <mxCell id="grUZeRGfLb8_Iu2T6s7t-60" value="" style="shape=module;jettyWidth=8;jettyHeight=4;align=center;" vertex="1" parent="grUZeRGfLb8_Iu2T6s7t-59">
          <mxGeometry x="1" width="20" height="20" relative="1" as="geometry">
            <mxPoint x="-27" y="7" as="offset" />
          </mxGeometry>
        </mxCell>
        <mxCell id="grUZeRGfLb8_Iu2T6s7t-84" style="edgeStyle=orthogonalEdgeStyle;rounded=0;orthogonalLoop=1;jettySize=auto;html=1;exitX=0.5;exitY=1;exitDx=0;exitDy=0;entryX=0.331;entryY=0.02;entryDx=0;entryDy=0;entryPerimeter=0;strokeColor=#FF8000;" edge="1" parent="1" source="grUZeRGfLb8_Iu2T6s7t-24" target="grUZeRGfLb8_Iu2T6s7t-45">
          <mxGeometry relative="1" as="geometry">
            <Array as="points">
              <mxPoint x="200" y="320" />
              <mxPoint x="713" y="320" />
            </Array>
          </mxGeometry>
        </mxCell>
        <mxCell id="grUZeRGfLb8_Iu2T6s7t-129" style="edgeStyle=orthogonalEdgeStyle;rounded=0;orthogonalLoop=1;jettySize=auto;html=1;exitX=0;exitY=0.5;exitDx=0;exitDy=0;entryX=0;entryY=0.5;entryDx=0;entryDy=0;" edge="1" parent="1" source="grUZeRGfLb8_Iu2T6s7t-94" target="grUZeRGfLb8_Iu2T6s7t-127">
          <mxGeometry relative="1" as="geometry">
            <Array as="points">
              <mxPoint x="290" y="987" />
              <mxPoint x="290" y="1055" />
            </Array>
          </mxGeometry>
        </mxCell>
        <mxCell id="grUZeRGfLb8_Iu2T6s7t-94" value="«&lt;b&gt;Component&lt;/b&gt;»&lt;div&gt;Trasaccion&lt;span style=&quot;text-wrap-mode: nowrap;&quot;&gt;Repository&lt;/span&gt;&lt;/div&gt;" style="html=1;dropTarget=0;whiteSpace=wrap;" vertex="1" parent="1">
          <mxGeometry x="320" y="960" width="181" height="55" as="geometry" />
        </mxCell>
        <mxCell id="grUZeRGfLb8_Iu2T6s7t-95" value="" style="shape=module;jettyWidth=8;jettyHeight=4;" vertex="1" parent="grUZeRGfLb8_Iu2T6s7t-94">
          <mxGeometry x="1" width="20" height="20" relative="1" as="geometry">
            <mxPoint x="-27" y="7" as="offset" />
          </mxGeometry>
        </mxCell>
        <mxCell id="grUZeRGfLb8_Iu2T6s7t-137" style="edgeStyle=orthogonalEdgeStyle;rounded=0;orthogonalLoop=1;jettySize=auto;html=1;exitX=1;exitY=0.5;exitDx=0;exitDy=0;entryX=1;entryY=0.5;entryDx=0;entryDy=0;" edge="1" parent="1" source="grUZeRGfLb8_Iu2T6s7t-96" target="grUZeRGfLb8_Iu2T6s7t-127">
          <mxGeometry relative="1" as="geometry" />
        </mxCell>
        <mxCell id="grUZeRGfLb8_Iu2T6s7t-162" style="edgeStyle=orthogonalEdgeStyle;rounded=0;orthogonalLoop=1;jettySize=auto;html=1;exitX=1;exitY=0.75;exitDx=0;exitDy=0;entryX=1;entryY=0.75;entryDx=0;entryDy=0;strokeColor=#0000FF;" edge="1" parent="1" source="grUZeRGfLb8_Iu2T6s7t-96" target="grUZeRGfLb8_Iu2T6s7t-147">
          <mxGeometry relative="1" as="geometry" />
        </mxCell>
        <mxCell id="grUZeRGfLb8_Iu2T6s7t-96" value="«&lt;b&gt;Component&lt;/b&gt;»&lt;div&gt;Inventario&lt;span style=&quot;text-wrap-mode: nowrap;&quot;&gt;Repository&lt;/span&gt;&lt;/div&gt;" style="html=1;dropTarget=0;whiteSpace=wrap;" vertex="1" parent="1">
          <mxGeometry x="660" y="900" width="160" height="50" as="geometry" />
        </mxCell>
        <mxCell id="grUZeRGfLb8_Iu2T6s7t-97" value="" style="shape=module;jettyWidth=8;jettyHeight=4;" vertex="1" parent="grUZeRGfLb8_Iu2T6s7t-96">
          <mxGeometry x="1" width="20" height="20" relative="1" as="geometry">
            <mxPoint x="-27" y="7" as="offset" />
          </mxGeometry>
        </mxCell>
        <mxCell id="grUZeRGfLb8_Iu2T6s7t-130" style="edgeStyle=orthogonalEdgeStyle;rounded=0;orthogonalLoop=1;jettySize=auto;html=1;exitX=0;exitY=0.5;exitDx=0;exitDy=0;entryX=0;entryY=0.5;entryDx=0;entryDy=0;" edge="1" parent="1" source="grUZeRGfLb8_Iu2T6s7t-98" target="grUZeRGfLb8_Iu2T6s7t-127">
          <mxGeometry relative="1" as="geometry">
            <Array as="points">
              <mxPoint x="290" y="925" />
              <mxPoint x="290" y="1055" />
            </Array>
          </mxGeometry>
        </mxCell>
        <mxCell id="grUZeRGfLb8_Iu2T6s7t-159" style="edgeStyle=orthogonalEdgeStyle;rounded=0;orthogonalLoop=1;jettySize=auto;html=1;exitX=0;exitY=0.75;exitDx=0;exitDy=0;entryX=0;entryY=0.75;entryDx=0;entryDy=0;strokeColor=#0000FF;" edge="1" parent="1" source="grUZeRGfLb8_Iu2T6s7t-98" target="grUZeRGfLb8_Iu2T6s7t-149">
          <mxGeometry relative="1" as="geometry" />
        </mxCell>
        <mxCell id="grUZeRGfLb8_Iu2T6s7t-98" value="«&lt;b&gt;Component&lt;/b&gt;»&lt;div&gt;Bodega&lt;span style=&quot;text-wrap-mode: nowrap;&quot;&gt;Repository&lt;/span&gt;&lt;/div&gt;" style="html=1;dropTarget=0;whiteSpace=wrap;" vertex="1" parent="1">
          <mxGeometry x="319" y="900" width="181" height="50" as="geometry" />
        </mxCell>
        <mxCell id="grUZeRGfLb8_Iu2T6s7t-99" value="" style="shape=module;jettyWidth=8;jettyHeight=4;" vertex="1" parent="grUZeRGfLb8_Iu2T6s7t-98">
          <mxGeometry x="1" width="20" height="20" relative="1" as="geometry">
            <mxPoint x="-27" y="7" as="offset" />
          </mxGeometry>
        </mxCell>
        <mxCell id="grUZeRGfLb8_Iu2T6s7t-136" style="edgeStyle=orthogonalEdgeStyle;rounded=0;orthogonalLoop=1;jettySize=auto;html=1;exitX=1;exitY=0.5;exitDx=0;exitDy=0;entryX=1;entryY=0.5;entryDx=0;entryDy=0;" edge="1" parent="1" source="grUZeRGfLb8_Iu2T6s7t-100" target="grUZeRGfLb8_Iu2T6s7t-127">
          <mxGeometry relative="1" as="geometry" />
        </mxCell>
        <mxCell id="grUZeRGfLb8_Iu2T6s7t-163" style="edgeStyle=orthogonalEdgeStyle;rounded=0;orthogonalLoop=1;jettySize=auto;html=1;exitX=1;exitY=0.75;exitDx=0;exitDy=0;entryX=1;entryY=0.75;entryDx=0;entryDy=0;strokeColor=#0000FF;" edge="1" parent="1" source="grUZeRGfLb8_Iu2T6s7t-100" target="grUZeRGfLb8_Iu2T6s7t-145">
          <mxGeometry relative="1" as="geometry" />
        </mxCell>
        <mxCell id="grUZeRGfLb8_Iu2T6s7t-100" value="«&lt;b&gt;Component&lt;/b&gt;»&lt;div&gt;Producto&lt;span style=&quot;text-wrap-mode: nowrap;&quot;&gt;Repository&lt;/span&gt;&lt;/div&gt;" style="html=1;dropTarget=0;whiteSpace=wrap;" vertex="1" parent="1">
          <mxGeometry x="660" y="840" width="160" height="50" as="geometry" />
        </mxCell>
        <mxCell id="grUZeRGfLb8_Iu2T6s7t-101" value="" style="shape=module;jettyWidth=8;jettyHeight=4;" vertex="1" parent="grUZeRGfLb8_Iu2T6s7t-100">
          <mxGeometry x="1" width="20" height="20" relative="1" as="geometry">
            <mxPoint x="-27" y="7" as="offset" />
          </mxGeometry>
        </mxCell>
        <mxCell id="grUZeRGfLb8_Iu2T6s7t-131" style="edgeStyle=orthogonalEdgeStyle;rounded=0;orthogonalLoop=1;jettySize=auto;html=1;exitX=0;exitY=0.5;exitDx=0;exitDy=0;entryX=0;entryY=0.5;entryDx=0;entryDy=0;" edge="1" parent="1" source="grUZeRGfLb8_Iu2T6s7t-102" target="grUZeRGfLb8_Iu2T6s7t-127">
          <mxGeometry relative="1" as="geometry">
            <Array as="points">
              <mxPoint x="290" y="865" />
              <mxPoint x="290" y="1055" />
            </Array>
          </mxGeometry>
        </mxCell>
        <mxCell id="grUZeRGfLb8_Iu2T6s7t-160" style="edgeStyle=orthogonalEdgeStyle;rounded=0;orthogonalLoop=1;jettySize=auto;html=1;exitX=0;exitY=0.75;exitDx=0;exitDy=0;entryX=0;entryY=0.75;entryDx=0;entryDy=0;strokeColor=#0000FF;" edge="1" parent="1" source="grUZeRGfLb8_Iu2T6s7t-102" target="grUZeRGfLb8_Iu2T6s7t-153">
          <mxGeometry relative="1" as="geometry" />
        </mxCell>
        <mxCell id="grUZeRGfLb8_Iu2T6s7t-102" value="«&lt;b&gt;Component&lt;/b&gt;»&lt;div&gt;Material&lt;span style=&quot;text-wrap-mode: nowrap;&quot;&gt;Repository&lt;/span&gt;&lt;/div&gt;" style="html=1;dropTarget=0;whiteSpace=wrap;" vertex="1" parent="1">
          <mxGeometry x="319" y="837.5" width="181" height="55" as="geometry" />
        </mxCell>
        <mxCell id="grUZeRGfLb8_Iu2T6s7t-103" value="" style="shape=module;jettyWidth=8;jettyHeight=4;" vertex="1" parent="grUZeRGfLb8_Iu2T6s7t-102">
          <mxGeometry x="1" width="20" height="20" relative="1" as="geometry">
            <mxPoint x="-27" y="7" as="offset" />
          </mxGeometry>
        </mxCell>
        <mxCell id="grUZeRGfLb8_Iu2T6s7t-133" style="edgeStyle=orthogonalEdgeStyle;rounded=0;orthogonalLoop=1;jettySize=auto;html=1;exitX=0;exitY=0.5;exitDx=0;exitDy=0;entryX=0;entryY=0.5;entryDx=0;entryDy=0;" edge="1" parent="1" source="grUZeRGfLb8_Iu2T6s7t-104" target="grUZeRGfLb8_Iu2T6s7t-127">
          <mxGeometry relative="1" as="geometry">
            <Array as="points">
              <mxPoint x="290" y="805" />
              <mxPoint x="290" y="1055" />
            </Array>
          </mxGeometry>
        </mxCell>
        <mxCell id="grUZeRGfLb8_Iu2T6s7t-233" value="Manages" style="edgeLabel;html=1;align=center;verticalAlign=middle;resizable=0;points=[];" vertex="1" connectable="0" parent="grUZeRGfLb8_Iu2T6s7t-133">
          <mxGeometry x="0.4852" relative="1" as="geometry">
            <mxPoint as="offset" />
          </mxGeometry>
        </mxCell>
        <mxCell id="grUZeRGfLb8_Iu2T6s7t-161" style="edgeStyle=orthogonalEdgeStyle;rounded=0;orthogonalLoop=1;jettySize=auto;html=1;exitX=0;exitY=0.75;exitDx=0;exitDy=0;entryX=0;entryY=0.75;entryDx=0;entryDy=0;strokeColor=#0000FF;" edge="1" parent="1" source="grUZeRGfLb8_Iu2T6s7t-104" target="grUZeRGfLb8_Iu2T6s7t-155">
          <mxGeometry relative="1" as="geometry" />
        </mxCell>
        <mxCell id="grUZeRGfLb8_Iu2T6s7t-104" value="«&lt;b&gt;Component&lt;/b&gt;»&lt;div&gt;Proveedor&lt;span style=&quot;text-wrap-mode: nowrap;&quot;&gt;Repository&lt;/span&gt;&lt;/div&gt;" style="html=1;dropTarget=0;whiteSpace=wrap;" vertex="1" parent="1">
          <mxGeometry x="319" y="780" width="181" height="50" as="geometry" />
        </mxCell>
        <mxCell id="grUZeRGfLb8_Iu2T6s7t-105" value="" style="shape=module;jettyWidth=8;jettyHeight=4;" vertex="1" parent="grUZeRGfLb8_Iu2T6s7t-104">
          <mxGeometry x="1" width="20" height="20" relative="1" as="geometry">
            <mxPoint x="-27" y="7" as="offset" />
          </mxGeometry>
        </mxCell>
        <mxCell id="grUZeRGfLb8_Iu2T6s7t-134" style="edgeStyle=orthogonalEdgeStyle;rounded=0;orthogonalLoop=1;jettySize=auto;html=1;exitX=1;exitY=0.5;exitDx=0;exitDy=0;entryX=1;entryY=0.5;entryDx=0;entryDy=0;" edge="1" parent="1" source="grUZeRGfLb8_Iu2T6s7t-106" target="grUZeRGfLb8_Iu2T6s7t-127">
          <mxGeometry relative="1" as="geometry">
            <Array as="points">
              <mxPoint x="840" y="805" />
              <mxPoint x="840" y="1055" />
            </Array>
          </mxGeometry>
        </mxCell>
        <mxCell id="grUZeRGfLb8_Iu2T6s7t-234" value="Manages" style="edgeLabel;html=1;align=center;verticalAlign=middle;resizable=0;points=[];" vertex="1" connectable="0" parent="grUZeRGfLb8_Iu2T6s7t-134">
          <mxGeometry x="0.6508" y="1" relative="1" as="geometry">
            <mxPoint as="offset" />
          </mxGeometry>
        </mxCell>
        <mxCell id="grUZeRGfLb8_Iu2T6s7t-164" style="edgeStyle=orthogonalEdgeStyle;rounded=0;orthogonalLoop=1;jettySize=auto;html=1;exitX=1;exitY=0.75;exitDx=0;exitDy=0;entryX=1;entryY=0.75;entryDx=0;entryDy=0;strokeColor=#0000FF;" edge="1" parent="1" source="grUZeRGfLb8_Iu2T6s7t-106" target="grUZeRGfLb8_Iu2T6s7t-143">
          <mxGeometry relative="1" as="geometry" />
        </mxCell>
        <mxCell id="grUZeRGfLb8_Iu2T6s7t-106" value="«&lt;b&gt;Component&lt;/b&gt;»&lt;div&gt;Usuario&lt;span style=&quot;text-wrap-mode: nowrap;&quot;&gt;Repository&lt;/span&gt;&lt;/div&gt;" style="html=1;dropTarget=0;whiteSpace=wrap;" vertex="1" parent="1">
          <mxGeometry x="660" y="780" width="160" height="50" as="geometry" />
        </mxCell>
        <mxCell id="grUZeRGfLb8_Iu2T6s7t-107" value="" style="shape=module;jettyWidth=8;jettyHeight=4;" vertex="1" parent="grUZeRGfLb8_Iu2T6s7t-106">
          <mxGeometry x="1" width="20" height="20" relative="1" as="geometry">
            <mxPoint x="-27" y="7" as="offset" />
          </mxGeometry>
        </mxCell>
        <mxCell id="grUZeRGfLb8_Iu2T6s7t-121" style="edgeStyle=orthogonalEdgeStyle;rounded=0;orthogonalLoop=1;jettySize=auto;html=1;exitX=1;exitY=0.75;exitDx=0;exitDy=0;entryX=0.997;entryY=0.874;entryDx=0;entryDy=0;entryPerimeter=0;strokeColor=#CC00CC;" edge="1" parent="1" source="grUZeRGfLb8_Iu2T6s7t-49" target="grUZeRGfLb8_Iu2T6s7t-98">
          <mxGeometry relative="1" as="geometry">
            <Array as="points">
              <mxPoint x="530" y="567" />
              <mxPoint x="530" y="944" />
            </Array>
          </mxGeometry>
        </mxCell>
        <mxCell id="grUZeRGfLb8_Iu2T6s7t-217" value="Use" style="edgeLabel;html=1;align=center;verticalAlign=middle;resizable=0;points=[];" vertex="1" connectable="0" parent="grUZeRGfLb8_Iu2T6s7t-121">
          <mxGeometry x="0.7239" y="-1" relative="1" as="geometry">
            <mxPoint as="offset" />
          </mxGeometry>
        </mxCell>
        <mxCell id="grUZeRGfLb8_Iu2T6s7t-127" value="«&lt;b&gt;Component&lt;/b&gt;»&lt;div&gt;JPAEntityManager&lt;/div&gt;" style="html=1;dropTarget=0;whiteSpace=wrap;" vertex="1" parent="1">
          <mxGeometry x="520" y="1030" width="160" height="50" as="geometry" />
        </mxCell>
        <mxCell id="grUZeRGfLb8_Iu2T6s7t-128" value="" style="shape=module;jettyWidth=8;jettyHeight=4;" vertex="1" parent="grUZeRGfLb8_Iu2T6s7t-127">
          <mxGeometry x="1" width="20" height="20" relative="1" as="geometry">
            <mxPoint x="-27" y="7" as="offset" />
          </mxGeometry>
        </mxCell>
        <mxCell id="grUZeRGfLb8_Iu2T6s7t-158" style="edgeStyle=orthogonalEdgeStyle;rounded=0;orthogonalLoop=1;jettySize=auto;html=1;exitX=0;exitY=0.75;exitDx=0;exitDy=0;strokeColor=#0000FF;" edge="1" parent="1" source="grUZeRGfLb8_Iu2T6s7t-94">
          <mxGeometry relative="1" as="geometry">
            <mxPoint x="343.98" y="1001.25" as="sourcePoint" />
            <mxPoint x="350" y="1518" as="targetPoint" />
            <Array as="points">
              <mxPoint x="300" y="1001" />
              <mxPoint x="300" y="1518" />
            </Array>
          </mxGeometry>
        </mxCell>
        <mxCell id="grUZeRGfLb8_Iu2T6s7t-203" style="edgeStyle=orthogonalEdgeStyle;rounded=0;orthogonalLoop=1;jettySize=auto;html=1;exitX=0.75;exitY=0;exitDx=0;exitDy=0;entryX=0.599;entryY=0.995;entryDx=0;entryDy=0;entryPerimeter=0;" edge="1" parent="1" source="grUZeRGfLb8_Iu2T6s7t-127" target="grUZeRGfLb8_Iu2T6s7t-41">
          <mxGeometry relative="1" as="geometry">
            <Array as="points">
              <mxPoint x="640" y="1010" />
              <mxPoint x="1710" y="1010" />
              <mxPoint x="1710" y="180" />
            </Array>
          </mxGeometry>
        </mxCell>
      </root>
    </mxGraphModel>
  </diagram>
</mxfile>
